<svg id="visual" viewBox="0 0 1500 954" width="1500" height="954" xmlns="http://www.w3.org/2000/svg" xmlns:xlink="http://www.w3.org/1999/xlink" version="1.1"><rect x="0" y="0" width="1500" height="954" fill="#403B39"></rect><g transform="translate(771.0451367524349 473.97427484200784)"><path d="M205.7 -359.6C292.2 -306.4 405.5 -302.9 468.5 -251.3C531.5 -199.7 544.2 -99.8 510 -19.8C475.8 60.3 394.7 120.7 347.9 200.5C301.2 280.3 288.8 379.6 236.6 424.8C184.3 469.9 92.2 461 -13.5 484.4C-119.2 507.9 -238.5 563.8 -301.7 524.9C-364.9 486.1 -372.1 352.5 -421 249.3C-469.9 146 -560.4 73 -569.8 -5.4C-579.2 -83.8 -507.4 -167.7 -437.1 -233.8C-366.7 -299.9 -297.9 -348.3 -225.3 -409.5C-152.7 -470.8 -76.3 -544.9 -8.4 -530.4C59.6 -515.9 119.3 -412.9 205.7 -359.6" fill="none" stroke="#736B66" stroke-width="6"></path></g></svg>